<?xml version="1.0" encoding="iso-8859-1"?>
<!-- Generator: Adobe Illustrator 15.1.0, SVG Export Plug-In . SVG Version: 6.00 Build 0)  -->
<!DOCTYPE svg PUBLIC "-//W3C//DTD SVG 1.1//EN" "http://www.w3.org/Graphics/SVG/1.1/DTD/svg11.dtd">
<svg version="1.1" id="Layer_1" xmlns="http://www.w3.org/2000/svg" xmlns:xlink="http://www.w3.org/1999/xlink" x="0px" y="0px"
	 width="250px" height="350px" viewBox="0 0 250 350" style="enable-background:new 0 0 250 350;" xml:space="preserve">
<g>
	<g id="LINE_38_">
		<linearGradient id="SVGID_1_" gradientUnits="userSpaceOnUse" x1="61.7114" y1="58.1572" x2="61.7114" y2="268.6211">
			<stop  offset="0" style="stop-color:#FFBD3A"/>
			<stop  offset="0.1653" style="stop-color:#FA9C46"/>
			<stop  offset="0.7433" style="stop-color:#EA2D6D"/>
			<stop  offset="1" style="stop-color:#E4017D"/>
		</linearGradient>
		<path style="fill:url(#SVGID_1_);" d="M31.771,73.146c-1.144,0-2.258-0.592-2.872-1.657c-0.915-1.583-0.372-3.611,1.213-4.524
			L90,32.385c1.583-0.91,3.61-0.371,4.525,1.215c0.914,1.583,0.371,3.608-1.212,4.524l-59.89,34.578
			C32.901,73.001,32.332,73.146,31.771,73.146z"/>
	</g>
	<g id="LINE_37_">
		<linearGradient id="SVGID_2_" gradientUnits="userSpaceOnUse" x1="21.7729" y1="58.1606" x2="21.7729" y2="268.6072">
			<stop  offset="0" style="stop-color:#FFBD3A"/>
			<stop  offset="0.1653" style="stop-color:#FA9C46"/>
			<stop  offset="0.7433" style="stop-color:#EA2D6D"/>
			<stop  offset="1" style="stop-color:#E4017D"/>
		</linearGradient>
		<path style="fill:url(#SVGID_2_);" d="M21.773,187.312c-1.829,0-3.312-1.484-3.312-3.312v-66.85c0-1.827,1.483-3.309,3.312-3.309
			s3.313,1.482,3.313,3.309V184C25.085,185.828,23.602,187.312,21.773,187.312z"/>
	</g>
	<g id="LINE_36_">
		<linearGradient id="SVGID_3_" gradientUnits="userSpaceOnUse" x1="85.7017" y1="58.1626" x2="85.7017" y2="268.609">
			<stop  offset="0" style="stop-color:#FFBD3A"/>
			<stop  offset="0.1653" style="stop-color:#FA9C46"/>
			<stop  offset="0.7433" style="stop-color:#EA2D6D"/>
			<stop  offset="1" style="stop-color:#E4017D"/>
		</linearGradient>
		<path style="fill:url(#SVGID_3_);" d="M115.644,253.052c-0.562,0-1.131-0.143-1.651-0.442l-59.894-34.578
			c-1.584-0.915-2.126-2.943-1.212-4.524c0.917-1.586,2.942-2.122,4.524-1.215l59.893,34.578c1.584,0.915,2.127,2.943,1.212,4.526
			C117.902,252.459,116.79,253.052,115.644,253.052z"/>
	</g>
	<g id="LINE_35_">
		<linearGradient id="SVGID_4_" gradientUnits="userSpaceOnUse" x1="189.5693" y1="58.1548" x2="189.5693" y2="268.611">
			<stop  offset="0" style="stop-color:#FFBD3A"/>
			<stop  offset="0.1653" style="stop-color:#FA9C46"/>
			<stop  offset="0.7433" style="stop-color:#EA2D6D"/>
			<stop  offset="1" style="stop-color:#E4017D"/>
		</linearGradient>
		<path style="fill:url(#SVGID_4_);" d="M159.627,239.206c-1.145,0-2.258-0.594-2.871-1.656c-0.916-1.584-0.372-3.609,1.212-4.524
			l59.889-34.583c1.588-0.912,3.609-0.371,4.525,1.215c0.914,1.583,0.371,3.608-1.213,4.523l-59.89,34.581
			C160.758,239.062,160.19,239.206,159.627,239.206z"/>
	</g>
	<g id="LINE_34_">
		<linearGradient id="SVGID_5_" gradientUnits="userSpaceOnUse" x1="229.5098" y1="58.1558" x2="229.5098" y2="268.6103">
			<stop  offset="0" style="stop-color:#FFBD3A"/>
			<stop  offset="0.1653" style="stop-color:#FA9C46"/>
			<stop  offset="0.7433" style="stop-color:#EA2D6D"/>
			<stop  offset="1" style="stop-color:#E4017D"/>
		</linearGradient>
		<path style="fill:url(#SVGID_5_);" d="M229.512,187.312c-1.83,0-3.314-1.484-3.314-3.312V87.146c0-1.829,1.484-3.313,3.314-3.313
			c1.828,0,3.311,1.484,3.311,3.313V184C232.822,185.828,231.34,187.312,229.512,187.312z"/>
	</g>
	<g id="LINE_33_">
		<linearGradient id="SVGID_6_" gradientUnits="userSpaceOnUse" x1="165.5825" y1="58.1577" x2="165.5825" y2="268.603">
			<stop  offset="0" style="stop-color:#FFBD3A"/>
			<stop  offset="0.1653" style="stop-color:#FA9C46"/>
			<stop  offset="0.7433" style="stop-color:#EA2D6D"/>
			<stop  offset="1" style="stop-color:#E4017D"/>
		</linearGradient>
		<path style="fill:url(#SVGID_6_);" d="M195.525,59.298c-0.563,0-1.131-0.143-1.652-0.442L133.98,24.278
			c-1.584-0.915-2.127-2.943-1.212-4.526c0.918-1.583,2.941-2.122,4.523-1.212l59.894,34.578c1.584,0.915,2.127,2.94,1.211,4.523
			C197.785,58.704,196.67,59.298,195.525,59.298z"/>
	</g>
	<g id="LINE_32_">
		<linearGradient id="SVGID_7_" gradientUnits="userSpaceOnUse" x1="62.7104" y1="58.1577" x2="62.7104" y2="268.6179">
			<stop  offset="0" style="stop-color:#FFBD3A"/>
			<stop  offset="0.1653" style="stop-color:#FA9C46"/>
			<stop  offset="0.7433" style="stop-color:#EA2D6D"/>
			<stop  offset="1" style="stop-color:#E4017D"/>
		</linearGradient>
		<path style="fill:url(#SVGID_7_);" d="M33.768,99.69c-1.144,0-2.257-0.594-2.872-1.657c-0.914-1.586-0.371-3.611,1.214-4.524
			L90,60.086c1.583-0.91,3.61-0.371,4.525,1.215c0.914,1.583,0.371,3.609-1.212,4.524L35.421,99.246
			C34.9,99.545,34.331,99.69,33.768,99.69z"/>
	</g>
	<g id="LINE_31_">
		<linearGradient id="SVGID_8_" gradientUnits="userSpaceOnUse" x1="45.7573" y1="58.1572" x2="45.7573" y2="268.6102">
			<stop  offset="0" style="stop-color:#FFBD3A"/>
			<stop  offset="0.1653" style="stop-color:#FA9C46"/>
			<stop  offset="0.7433" style="stop-color:#EA2D6D"/>
			<stop  offset="1" style="stop-color:#E4017D"/>
		</linearGradient>
		<path style="fill:url(#SVGID_8_);" d="M45.758,201.162c-1.83,0-3.313-1.484-3.313-3.312v-69.158c0-1.83,1.483-3.311,3.313-3.311
			c1.829,0,3.312,1.481,3.312,3.311v69.158C49.07,199.678,47.587,201.162,45.758,201.162z"/>
	</g>
	<g id="LINE_30_">
		<linearGradient id="SVGID_9_" gradientUnits="userSpaceOnUse" x1="110.6855" y1="58.1514" x2="110.6855" y2="268.6116">
			<stop  offset="0" style="stop-color:#FFBD3A"/>
			<stop  offset="0.1653" style="stop-color:#FA9C46"/>
			<stop  offset="0.7433" style="stop-color:#EA2D6D"/>
			<stop  offset="1" style="stop-color:#E4017D"/>
		</linearGradient>
		<path style="fill:url(#SVGID_9_);" d="M139.626,239.206c-0.562,0-1.132-0.145-1.653-0.444l-57.888-33.427
			c-1.584-0.915-2.127-2.94-1.213-4.524c0.916-1.585,2.944-2.125,4.525-1.214l57.889,33.429c1.584,0.915,2.125,2.94,1.212,4.524
			C141.883,238.612,140.769,239.206,139.626,239.206z"/>
	</g>
	<g id="LINE_29_">
		<linearGradient id="SVGID_10_" gradientUnits="userSpaceOnUse" x1="165.5825" y1="58.1641" x2="165.5825" y2="268.607">
			<stop  offset="0" style="stop-color:#FFBD3A"/>
			<stop  offset="0.1653" style="stop-color:#FA9C46"/>
			<stop  offset="0.7433" style="stop-color:#EA2D6D"/>
			<stop  offset="1" style="stop-color:#E4017D"/>
		</linearGradient>
		<path style="fill:url(#SVGID_10_);" d="M135.64,225.351c-1.146,0-2.259-0.592-2.872-1.654c-0.915-1.583-0.372-3.611,1.212-4.526
			l59.893-34.573c1.582-0.91,3.607-0.372,4.523,1.209c0.916,1.586,0.373,3.611-1.211,4.526l-59.894,34.576
			C136.771,225.208,136.202,225.351,135.64,225.351z"/>
	</g>
	<g id="LINE_28_">
		<linearGradient id="SVGID_11_" gradientUnits="userSpaceOnUse" x1="205.5205" y1="58.1572" x2="205.5205" y2="268.6146">
			<stop  offset="0" style="stop-color:#FFBD3A"/>
			<stop  offset="0.1653" style="stop-color:#FA9C46"/>
			<stop  offset="0.7433" style="stop-color:#EA2D6D"/>
			<stop  offset="1" style="stop-color:#E4017D"/>
		</linearGradient>
		<path style="fill:url(#SVGID_11_);" d="M205.52,144.058c-1.828,0-3.311-1.484-3.311-3.314V73.299c0-1.827,1.482-3.312,3.311-3.312
			s3.313,1.485,3.313,3.312v67.445C208.832,142.574,207.348,144.058,205.52,144.058z"/>
	</g>
	<g id="LINE_27_">
		<linearGradient id="SVGID_12_" gradientUnits="userSpaceOnUse" x1="141.5952" y1="58.1572" x2="141.5952" y2="268.6211">
			<stop  offset="0" style="stop-color:#FFBD3A"/>
			<stop  offset="0.1653" style="stop-color:#FA9C46"/>
			<stop  offset="0.7433" style="stop-color:#EA2D6D"/>
			<stop  offset="1" style="stop-color:#E4017D"/>
		</linearGradient>
		<path style="fill:url(#SVGID_12_);" d="M171.539,73.146c-0.562,0-1.132-0.145-1.652-0.444l-59.894-34.578
			c-1.584-0.916-2.127-2.941-1.212-4.524c0.917-1.586,2.94-2.125,4.523-1.215l59.894,34.58c1.586,0.913,2.127,2.94,1.213,4.524
			C173.795,72.554,172.682,73.146,171.539,73.146z"/>
	</g>
	<g id="LINE_26_">
		<linearGradient id="SVGID_13_" gradientUnits="userSpaceOnUse" x1="85.7017" y1="58.1572" x2="85.7017" y2="268.6186">
			<stop  offset="0" style="stop-color:#FFBD3A"/>
			<stop  offset="0.1653" style="stop-color:#FA9C46"/>
			<stop  offset="0.7433" style="stop-color:#EA2D6D"/>
			<stop  offset="1" style="stop-color:#E4017D"/>
		</linearGradient>
		<path style="fill:url(#SVGID_13_);" d="M55.758,114.695c-1.145,0-2.258-0.595-2.872-1.657c-0.915-1.586-0.372-3.611,1.212-4.523
			l59.894-34.58c1.581-0.907,3.607-0.374,4.523,1.212c0.915,1.585,0.372,3.611-1.212,4.523L57.411,114.25
			C56.889,114.55,56.32,114.695,55.758,114.695z"/>
	</g>
	<g id="LINE_25_">
		<linearGradient id="SVGID_14_" gradientUnits="userSpaceOnUse" x1="69.7456" y1="58.1558" x2="69.7456" y2="268.6107">
			<stop  offset="0" style="stop-color:#FFBD3A"/>
			<stop  offset="0.1653" style="stop-color:#FA9C46"/>
			<stop  offset="0.7433" style="stop-color:#EA2D6D"/>
			<stop  offset="1" style="stop-color:#E4017D"/>
		</linearGradient>
		<path style="fill:url(#SVGID_14_);" d="M69.746,185.007c-1.83,0-3.313-1.482-3.313-3.312v-66.848c0-1.83,1.483-3.314,3.313-3.314
			c1.829,0,3.311,1.484,3.311,3.314v66.848C73.057,183.525,71.575,185.007,69.746,185.007z"/>
	</g>
	<g id="LINE_24_">
		<linearGradient id="SVGID_15_" gradientUnits="userSpaceOnUse" x1="97.6953" y1="58.1597" x2="97.6953" y2="268.6092">
			<stop  offset="0" style="stop-color:#FFBD3A"/>
			<stop  offset="0.1653" style="stop-color:#FA9C46"/>
			<stop  offset="0.7433" style="stop-color:#EA2D6D"/>
			<stop  offset="1" style="stop-color:#E4017D"/>
		</linearGradient>
		<path style="fill:url(#SVGID_15_);" d="M115.644,197.658c-0.562,0-1.131-0.145-1.651-0.445l-35.906-20.73
			c-1.585-0.912-2.127-2.94-1.212-4.523c0.916-1.586,2.943-2.123,4.523-1.212l35.906,20.729c1.584,0.916,2.127,2.941,1.212,4.527
			C117.902,197.065,116.79,197.658,115.644,197.658z"/>
	</g>
	<g id="LINE_23_">
		<linearGradient id="SVGID_16_" gradientUnits="userSpaceOnUse" x1="181.5332" y1="58.1553" x2="181.5332" y2="268.6151">
			<stop  offset="0" style="stop-color:#FFBD3A"/>
			<stop  offset="0.1653" style="stop-color:#FA9C46"/>
			<stop  offset="0.7433" style="stop-color:#EA2D6D"/>
			<stop  offset="1" style="stop-color:#E4017D"/>
		</linearGradient>
		<path style="fill:url(#SVGID_16_);" d="M181.531,159.616c-1.828,0-3.311-1.484-3.311-3.313V87.146
			c0-1.829,1.482-3.313,3.311-3.313s3.314,1.484,3.314,3.313v69.156C184.846,158.132,183.359,159.616,181.531,159.616z"/>
	</g>
	<g id="LINE_22_">
		<linearGradient id="SVGID_17_" gradientUnits="userSpaceOnUse" x1="141.5952" y1="58.1577" x2="141.5952" y2="268.603">
			<stop  offset="0" style="stop-color:#FFBD3A"/>
			<stop  offset="0.1653" style="stop-color:#FA9C46"/>
			<stop  offset="0.7433" style="stop-color:#EA2D6D"/>
			<stop  offset="1" style="stop-color:#E4017D"/>
		</linearGradient>
		<path style="fill:url(#SVGID_17_);" d="M171.539,100.845c-0.562,0-1.132-0.143-1.652-0.442l-59.894-34.578
			c-1.584-0.915-2.127-2.941-1.212-4.524c0.917-1.586,2.94-2.125,4.523-1.215l59.894,34.581c1.586,0.912,2.127,2.94,1.213,4.523
			C173.795,100.252,172.682,100.845,171.539,100.845z"/>
	</g>
	<g id="ARC_53_">
		<linearGradient id="SVGID_18_" gradientUnits="userSpaceOnUse" x1="143.5952" y1="58.1567" x2="143.5952" y2="268.6117">
			<stop  offset="0" style="stop-color:#FFBD3A"/>
			<stop  offset="0.1653" style="stop-color:#FA9C46"/>
			<stop  offset="0.7433" style="stop-color:#EA2D6D"/>
			<stop  offset="1" style="stop-color:#E4017D"/>
		</linearGradient>
		<path style="fill:url(#SVGID_18_);" d="M125.642,200.323c-4.029,0-8.056-1.037-11.648-3.11c-1.584-0.91-2.128-2.938-1.215-4.521
			c0.911-1.583,2.934-2.133,4.524-1.215c5.144,2.966,11.535,2.966,16.679,0l35.904-20.729c1.583-0.911,3.606-0.374,4.524,1.212
			c0.914,1.583,0.373,3.611-1.213,4.523l-35.906,20.73C133.698,199.287,129.668,200.323,125.642,200.323z"/>
	</g>
	<g id="ARC_52_">
		<linearGradient id="SVGID_19_" gradientUnits="userSpaceOnUse" x1="125.6421" y1="58.1646" x2="125.6421" y2="268.6103">
			<stop  offset="0" style="stop-color:#FFBD3A"/>
			<stop  offset="0.1653" style="stop-color:#FA9C46"/>
			<stop  offset="0.7433" style="stop-color:#EA2D6D"/>
			<stop  offset="1" style="stop-color:#E4017D"/>
		</linearGradient>
		<path style="fill:url(#SVGID_19_);" d="M125.642,255.723c-4.029,0-8.057-1.04-11.649-3.113c-1.585-0.915-2.127-2.943-1.211-4.524
			c0.912-1.585,2.94-2.125,4.522-1.212c5.144,2.971,11.534,2.971,16.676,0c1.581-0.913,3.609-0.373,4.523,1.212
			c0.916,1.581,0.373,3.609-1.212,4.524C133.699,254.683,129.67,255.723,125.642,255.723z"/>
	</g>
	<g id="ARC_51_">
		<linearGradient id="SVGID_20_" gradientUnits="userSpaceOnUse" x1="26.7705" y1="58.1641" x2="26.7705" y2="268.6068">
			<stop  offset="0" style="stop-color:#FFBD3A"/>
			<stop  offset="0.1653" style="stop-color:#FA9C46"/>
			<stop  offset="0.7433" style="stop-color:#EA2D6D"/>
			<stop  offset="1" style="stop-color:#E4017D"/>
		</linearGradient>
		<path style="fill:url(#SVGID_20_);" d="M31.764,204.624c-0.563,0-1.131-0.143-1.653-0.442c-7.186-4.15-11.65-11.883-11.65-20.181
			c0-1.827,1.483-3.311,3.312-3.311s3.313,1.484,3.313,3.311c0,5.939,3.195,11.475,8.338,14.443c1.584,0.915,2.126,2.94,1.213,4.523
			C34.021,204.029,32.908,204.624,31.764,204.624z"/>
	</g>
	<g id="ARC_50_">
		<linearGradient id="SVGID_21_" gradientUnits="userSpaceOnUse" x1="26.77" y1="58.1587" x2="26.77" y2="268.6058">
			<stop  offset="0" style="stop-color:#FFBD3A"/>
			<stop  offset="0.1653" style="stop-color:#FA9C46"/>
			<stop  offset="0.7433" style="stop-color:#EA2D6D"/>
			<stop  offset="1" style="stop-color:#E4017D"/>
		</linearGradient>
		<path style="fill:url(#SVGID_21_);" d="M21.773,90.458c-1.829,0-3.312-1.482-3.312-3.312c0-8.302,4.464-16.036,11.652-20.181
			c1.583-0.912,3.611-0.369,4.523,1.212c0.914,1.586,0.369,3.608-1.215,4.524c-5.141,2.968-8.336,8.503-8.336,14.444
			C25.085,88.976,23.602,90.458,21.773,90.458z"/>
	</g>
	<g id="ARC_49_">
		<linearGradient id="SVGID_22_" gradientUnits="userSpaceOnUse" x1="125.6421" y1="58.1621" x2="125.6421" y2="268.6411">
			<stop  offset="0" style="stop-color:#FFBD3A"/>
			<stop  offset="0.1653" style="stop-color:#FA9C46"/>
			<stop  offset="0.7433" style="stop-color:#EA2D6D"/>
			<stop  offset="1" style="stop-color:#E4017D"/>
		</linearGradient>
		<path style="fill:url(#SVGID_22_);" d="M135.633,24.72c-0.563,0-1.132-0.142-1.653-0.445c-5.143-2.971-11.533-2.971-16.676,0
			c-1.582,0.915-3.61,0.374-4.522-1.212c-0.917-1.581-0.374-3.608,1.211-4.524c7.184-4.152,16.114-4.152,23.299,0
			c1.585,0.916,2.128,2.943,1.212,4.524C137.89,24.126,136.776,24.72,135.633,24.72z"/>
	</g>
	<g id="ARC_48_">
		<linearGradient id="SVGID_23_" gradientUnits="userSpaceOnUse" x1="224.5117" y1="58.1563" x2="224.5117" y2="268.6193">
			<stop  offset="0" style="stop-color:#FFBD3A"/>
			<stop  offset="0.1653" style="stop-color:#FA9C46"/>
			<stop  offset="0.7433" style="stop-color:#EA2D6D"/>
			<stop  offset="1" style="stop-color:#E4017D"/>
		</linearGradient>
		<path style="fill:url(#SVGID_23_);" d="M229.512,90.458c-1.83,0-3.314-1.482-3.314-3.312c0-5.941-3.195-11.477-8.338-14.444
			c-1.584-0.916-2.129-2.938-1.213-4.524c0.912-1.586,2.938-2.13,4.521-1.212c7.189,4.147,11.654,11.881,11.654,20.181
			C232.822,88.976,231.34,90.458,229.512,90.458z"/>
	</g>
	<g id="ARC_47_">
		<linearGradient id="SVGID_24_" gradientUnits="userSpaceOnUse" x1="101.6519" y1="58.1582" x2="101.6518" y2="268.6151">
			<stop  offset="0" style="stop-color:#FFBD3A"/>
			<stop  offset="0.1653" style="stop-color:#FA9C46"/>
			<stop  offset="0.7433" style="stop-color:#EA2D6D"/>
			<stop  offset="1" style="stop-color:#E4017D"/>
		</linearGradient>
		<path style="fill:url(#SVGID_24_);" d="M91.661,66.267c-1.144,0-2.258-0.592-2.872-1.655c-0.915-1.583-0.372-3.608,1.212-4.526
			c7.188-4.147,16.12-4.15,23.303,0.003c1.585,0.915,2.127,2.94,1.211,4.523c-0.914,1.584-2.938,2.127-4.522,1.213
			c-5.144-2.969-11.532-2.971-16.679,0C92.792,66.125,92.222,66.267,91.661,66.267z"/>
	</g>
	<g id="ARC_46_">
		<linearGradient id="SVGID_25_" gradientUnits="userSpaceOnUse" x1="50.7563" y1="58.1577" x2="50.7563" y2="268.6134">
			<stop  offset="0" style="stop-color:#FFBD3A"/>
			<stop  offset="0.1653" style="stop-color:#FA9C46"/>
			<stop  offset="0.7433" style="stop-color:#EA2D6D"/>
			<stop  offset="1" style="stop-color:#E4017D"/>
		</linearGradient>
		<path style="fill:url(#SVGID_25_);" d="M45.758,132.006c-1.83,0-3.313-1.484-3.313-3.314c0-8.3,4.466-16.031,11.653-20.178
			c1.586-0.912,3.609-0.374,4.525,1.21c0.914,1.586,0.371,3.611-1.213,4.526c-5.145,2.971-8.341,8.506-8.341,14.442
			C49.07,130.522,47.587,132.006,45.758,132.006z"/>
	</g>
	<g id="ARC_45_">
		<linearGradient id="SVGID_26_" gradientUnits="userSpaceOnUse" x1="200.5244" y1="58.1489" x2="200.5244" y2="268.6175">
			<stop  offset="0" style="stop-color:#FFBD3A"/>
			<stop  offset="0.1653" style="stop-color:#FA9C46"/>
			<stop  offset="0.7433" style="stop-color:#EA2D6D"/>
			<stop  offset="1" style="stop-color:#E4017D"/>
		</linearGradient>
		<path style="fill:url(#SVGID_26_);" d="M195.531,190.778c-1.143,0-2.256-0.595-2.869-1.657c-0.916-1.583-0.373-3.608,1.211-4.523
			c5.141-2.971,8.336-8.506,8.336-14.445c0-1.83,1.482-3.312,3.311-3.312s3.313,1.482,3.313,3.312
			c0,8.298-4.463,16.031-11.646,20.179C196.664,190.633,196.096,190.778,195.531,190.778z"/>
	</g>
	<g id="ARC_44_">
		<linearGradient id="SVGID_27_" gradientUnits="userSpaceOnUse" x1="176.5371" y1="58.1582" x2="176.5371" y2="268.6111">
			<stop  offset="0" style="stop-color:#FFBD3A"/>
			<stop  offset="0.1653" style="stop-color:#FA9C46"/>
			<stop  offset="0.7433" style="stop-color:#EA2D6D"/>
			<stop  offset="1" style="stop-color:#E4017D"/>
		</linearGradient>
		<path style="fill:url(#SVGID_27_);" d="M181.531,90.458c-1.828,0-3.311-1.482-3.311-3.312c0-5.941-3.193-11.477-8.334-14.444
			c-1.586-0.916-2.127-2.938-1.213-4.524c0.915-1.586,2.939-2.12,4.524-1.212c7.186,4.147,11.648,11.881,11.648,20.181
			C184.846,88.976,183.359,90.458,181.531,90.458z"/>
	</g>
	<g id="ARC_43_">
		<linearGradient id="SVGID_28_" gradientUnits="userSpaceOnUse" x1="224.5117" y1="58.1641" x2="224.5117" y2="268.6068">
			<stop  offset="0" style="stop-color:#FFBD3A"/>
			<stop  offset="0.1653" style="stop-color:#FA9C46"/>
			<stop  offset="0.7433" style="stop-color:#EA2D6D"/>
			<stop  offset="1" style="stop-color:#E4017D"/>
		</linearGradient>
		<path style="fill:url(#SVGID_28_);" d="M219.518,204.624c-1.145,0-2.258-0.595-2.871-1.657c-0.916-1.583-0.373-3.608,1.211-4.523
			c5.145-2.971,8.34-8.503,8.34-14.443c0-1.827,1.484-3.311,3.314-3.311c1.828,0,3.311,1.484,3.311,3.311
			c0,8.298-4.465,16.028-11.652,20.181C220.648,204.481,220.08,204.624,219.518,204.624z"/>
	</g>
	<g id="ARC_42_">
		<linearGradient id="SVGID_29_" gradientUnits="userSpaceOnUse" x1="27.7695" y1="58.1567" x2="27.7695" y2="268.617">
			<stop  offset="0" style="stop-color:#FFBD3A"/>
			<stop  offset="0.1653" style="stop-color:#FA9C46"/>
			<stop  offset="0.7433" style="stop-color:#EA2D6D"/>
			<stop  offset="1" style="stop-color:#E4017D"/>
		</linearGradient>
		<path style="fill:url(#SVGID_29_);" d="M21.773,120.464c-1.829,0-3.312-1.484-3.312-3.314c0-9.718,5.23-18.781,13.649-23.64
			c1.583-0.912,3.607-0.376,4.523,1.21c0.915,1.586,0.373,3.609-1.212,4.526c-6.376,3.683-10.335,10.544-10.335,17.904
			C25.085,118.979,23.602,120.464,21.773,120.464z"/>
	</g>
	<g id="ARC_41_">
		<linearGradient id="SVGID_30_" gradientUnits="userSpaceOnUse" x1="149.6265" y1="58.1548" x2="149.6264" y2="268.6116">
			<stop  offset="0" style="stop-color:#FFBD3A"/>
			<stop  offset="0.1653" style="stop-color:#FA9C46"/>
			<stop  offset="0.7433" style="stop-color:#EA2D6D"/>
			<stop  offset="1" style="stop-color:#E4017D"/>
		</linearGradient>
		<path style="fill:url(#SVGID_30_);" d="M149.628,241.87c-4.028,0-8.059-1.037-11.651-3.105c-1.586-0.915-2.13-2.938-1.219-4.523
			c0.914-1.583,2.94-2.13,4.523-1.218c5.149,2.966,11.542,2.966,16.687,0.003c1.587-0.917,3.611-0.369,4.524,1.215
			c0.914,1.585,0.37,3.608-1.215,4.521C157.686,240.833,153.657,241.87,149.628,241.87z"/>
	</g>
	<g id="ARC_40_">
		<linearGradient id="SVGID_31_" gradientUnits="userSpaceOnUse" x1="101.6528" y1="58.1587" x2="101.6528" y2="268.6226">
			<stop  offset="0" style="stop-color:#FFBD3A"/>
			<stop  offset="0.1653" style="stop-color:#FA9C46"/>
			<stop  offset="0.7433" style="stop-color:#EA2D6D"/>
			<stop  offset="1" style="stop-color:#E4017D"/>
		</linearGradient>
		<path style="fill:url(#SVGID_31_);" d="M91.661,38.565c-1.146,0-2.26-0.592-2.872-1.657c-0.915-1.583-0.37-3.609,1.213-4.523
			c7.188-4.145,16.115-4.145,23.301,0c1.585,0.915,2.127,2.943,1.214,4.526c-0.916,1.583-2.94,2.125-4.525,1.213
			c-5.14-2.969-11.534-2.966-16.681,0C92.792,38.423,92.22,38.565,91.661,38.565z"/>
	</g>
	<g id="ARC_39_">
		<linearGradient id="SVGID_32_" gradientUnits="userSpaceOnUse" x1="200.5234" y1="58.1577" x2="200.5234" y2="268.6048">
			<stop  offset="0" style="stop-color:#FFBD3A"/>
			<stop  offset="0.1653" style="stop-color:#FA9C46"/>
			<stop  offset="0.7433" style="stop-color:#EA2D6D"/>
			<stop  offset="1" style="stop-color:#E4017D"/>
		</linearGradient>
		<path style="fill:url(#SVGID_32_);" d="M205.52,76.61c-1.828,0-3.311-1.485-3.311-3.312c0-5.942-3.193-11.474-8.336-14.443
			c-1.584-0.915-2.127-2.943-1.213-4.524c0.914-1.586,2.943-2.125,4.525-1.214c7.184,4.147,11.646,11.881,11.646,20.181
			C208.832,75.125,207.348,76.61,205.52,76.61z"/>
	</g>
	<g id="ARC_38_">
		<linearGradient id="SVGID_33_" gradientUnits="userSpaceOnUse" x1="125.6421" y1="58.1641" x2="125.6421" y2="268.6098">
			<stop  offset="0" style="stop-color:#FFBD3A"/>
			<stop  offset="0.1653" style="stop-color:#FA9C46"/>
			<stop  offset="0.7433" style="stop-color:#EA2D6D"/>
			<stop  offset="1" style="stop-color:#E4017D"/>
		</linearGradient>
		<path style="fill:url(#SVGID_33_);" d="M125.642,228.022c-4.029,0-8.057-1.04-11.649-3.113c-1.585-0.915-2.127-2.943-1.211-4.524
			c0.912-1.585,2.94-2.125,4.522-1.212c5.144,2.971,11.534,2.971,16.676,0c1.581-0.913,3.609-0.374,4.523,1.212
			c0.916,1.581,0.373,3.609-1.212,4.524C133.699,226.982,129.67,228.022,125.642,228.022z"/>
	</g>
	<g id="ARC_37_">
		<linearGradient id="SVGID_34_" gradientUnits="userSpaceOnUse" x1="50.7563" y1="58.165" x2="50.7563" y2="268.6078">
			<stop  offset="0" style="stop-color:#FFBD3A"/>
			<stop  offset="0.1653" style="stop-color:#FA9C46"/>
			<stop  offset="0.7433" style="stop-color:#EA2D6D"/>
			<stop  offset="1" style="stop-color:#E4017D"/>
		</linearGradient>
		<path style="fill:url(#SVGID_34_);" d="M55.752,218.474c-0.563,0-1.131-0.143-1.653-0.442
			c-7.187-4.15-11.653-11.883-11.653-20.181c0-1.83,1.483-3.311,3.313-3.311c1.829,0,3.312,1.481,3.312,3.311
			c0,5.939,3.196,11.475,8.341,14.442c1.584,0.916,2.126,2.941,1.213,4.524C58.009,217.879,56.896,218.474,55.752,218.474z"/>
	</g>
	<g id="ARC_36_">
		<linearGradient id="SVGID_35_" gradientUnits="userSpaceOnUse" x1="74.7446" y1="58.1499" x2="74.7446" y2="268.6184">
			<stop  offset="0" style="stop-color:#FFBD3A"/>
			<stop  offset="0.1653" style="stop-color:#FA9C46"/>
			<stop  offset="0.7433" style="stop-color:#EA2D6D"/>
			<stop  offset="1" style="stop-color:#E4017D"/>
		</linearGradient>
		<path style="fill:url(#SVGID_35_);" d="M79.74,176.928c-0.562,0-1.13-0.143-1.652-0.445c-7.188-4.147-11.654-11.881-11.654-20.181
			c0-1.83,1.483-3.312,3.313-3.312c1.829,0,3.311,1.482,3.311,3.312c0,5.941,3.196,11.477,8.34,14.445
			c1.585,0.915,2.128,2.937,1.215,4.523C81.998,176.333,80.884,176.928,79.74,176.928z"/>
	</g>
	<g id="ARC_35_">
		<linearGradient id="SVGID_36_" gradientUnits="userSpaceOnUse" x1="74.7446" y1="58.1572" x2="74.7446" y2="268.6129">
			<stop  offset="0" style="stop-color:#FFBD3A"/>
			<stop  offset="0.1653" style="stop-color:#FA9C46"/>
			<stop  offset="0.7433" style="stop-color:#EA2D6D"/>
			<stop  offset="1" style="stop-color:#E4017D"/>
		</linearGradient>
		<path style="fill:url(#SVGID_36_);" d="M69.746,118.159c-1.83,0-3.313-1.484-3.313-3.312c0-8.3,4.466-16.034,11.654-20.181
			c1.583-0.913,3.61-0.374,4.524,1.212s0.37,3.609-1.215,4.524c-5.144,2.968-8.34,8.503-8.34,14.445
			C73.057,116.675,71.575,118.159,69.746,118.159z"/>
	</g>
	<g id="ARC_34_">
		<linearGradient id="SVGID_37_" gradientUnits="userSpaceOnUse" x1="125.6421" y1="58.1587" x2="125.6421" y2="268.6005">
			<stop  offset="0" style="stop-color:#FFBD3A"/>
			<stop  offset="0.1653" style="stop-color:#FA9C46"/>
			<stop  offset="0.7433" style="stop-color:#EA2D6D"/>
			<stop  offset="1" style="stop-color:#E4017D"/>
		</linearGradient>
		<path style="fill:url(#SVGID_37_);" d="M135.633,80.115c-0.563,0-1.132-0.145-1.653-0.445c-5.143-2.968-11.533-2.968-16.676,0
			c-1.582,0.916-3.606,0.374-4.525-1.209c-0.914-1.585-0.371-3.611,1.214-4.526c7.187-4.145,16.112-4.145,23.299,0
			c1.585,0.915,2.128,2.94,1.214,4.526C137.89,79.522,136.776,80.115,135.633,80.115z"/>
	</g>
	<g id="ARC_33_">
		<linearGradient id="SVGID_38_" gradientUnits="userSpaceOnUse" x1="176.5371" y1="58.1572" x2="176.5371" y2="268.6129">
			<stop  offset="0" style="stop-color:#FFBD3A"/>
			<stop  offset="0.1653" style="stop-color:#FA9C46"/>
			<stop  offset="0.7433" style="stop-color:#EA2D6D"/>
			<stop  offset="1" style="stop-color:#E4017D"/>
		</linearGradient>
		<path style="fill:url(#SVGID_38_);" d="M181.531,118.159c-1.828,0-3.311-1.484-3.311-3.312c0-5.941-3.193-11.477-8.334-14.445
			c-1.586-0.915-2.127-2.938-1.213-4.524c0.915-1.586,2.939-2.125,4.524-1.212c7.186,4.147,11.648,11.88,11.648,20.181
			C184.846,116.675,183.359,118.159,181.531,118.159z"/>
	</g>
	<g id="ARC_32_">
		<linearGradient id="SVGID_39_" gradientUnits="userSpaceOnUse" x1="176.5371" y1="58.1499" x2="176.5371" y2="268.6184">
			<stop  offset="0" style="stop-color:#FFBD3A"/>
			<stop  offset="0.1653" style="stop-color:#FA9C46"/>
			<stop  offset="0.7433" style="stop-color:#EA2D6D"/>
			<stop  offset="1" style="stop-color:#E4017D"/>
		</linearGradient>
		<path style="fill:url(#SVGID_39_);" d="M171.543,176.928c-1.144,0-2.256-0.595-2.87-1.657c-0.914-1.586-0.373-3.608,1.213-4.523
			c5.141-2.969,8.334-8.504,8.334-14.445c0-1.83,1.482-3.312,3.311-3.312s3.314,1.482,3.314,3.312c0,8.3-4.463,16.033-11.648,20.181
			C172.677,176.783,172.107,176.928,171.543,176.928z"/>
	</g>
	<g id="ARC_31_">
		<linearGradient id="SVGID_40_" gradientUnits="userSpaceOnUse" x1="75.7437" y1="58.1606" x2="75.7436" y2="268.6086">
			<stop  offset="0" style="stop-color:#FFBD3A"/>
			<stop  offset="0.1653" style="stop-color:#FA9C46"/>
			<stop  offset="0.7433" style="stop-color:#EA2D6D"/>
			<stop  offset="1" style="stop-color:#E4017D"/>
		</linearGradient>
		<path style="fill:url(#SVGID_40_);" d="M81.737,205.777c-0.562,0-1.131-0.143-1.652-0.442
			c-8.421-4.859-13.652-13.917-13.652-23.64c0-1.829,1.483-3.311,3.313-3.311c1.829,0,3.311,1.482,3.311,3.311
			c0,7.363,3.962,14.222,10.34,17.902c1.584,0.915,2.126,2.94,1.212,4.523C83.997,205.185,82.882,205.777,81.737,205.777z"/>
	</g>
	<g id="LINE_21_">
		<linearGradient id="SVGID_41_" gradientUnits="userSpaceOnUse" x1="205.5205" y1="58.1523" x2="205.5205" y2="268.6174">
			<stop  offset="0" style="stop-color:#FFBD3A"/>
			<stop  offset="0.1653" style="stop-color:#FA9C46"/>
			<stop  offset="0.7433" style="stop-color:#EA2D6D"/>
			<stop  offset="1" style="stop-color:#E4017D"/>
		</linearGradient>
		<path style="fill:url(#SVGID_41_);" d="M205.52,173.466c-1.828,0-3.311-1.484-3.311-3.314v-15.431c0-1.83,1.482-3.311,3.311-3.311
			s3.313,1.481,3.313,3.311v15.431C208.832,171.982,207.348,173.466,205.52,173.466z"/>
	</g>
	<g id="LINE_20_">
		<linearGradient id="SVGID_42_" gradientUnits="userSpaceOnUse" x1="205.5205" y1="58.1558" x2="205.5205" y2="268.6153">
			<stop  offset="0" style="stop-color:#FFBD3A"/>
			<stop  offset="0.1653" style="stop-color:#FA9C46"/>
			<stop  offset="0.7433" style="stop-color:#EA2D6D"/>
			<stop  offset="1" style="stop-color:#E4017D"/>
		</linearGradient>
		<path style="fill:url(#SVGID_42_);" d="M205.52,158.035c-1.828,0-3.311-1.484-3.311-3.314v-23.99c0-1.83,1.482-3.312,3.311-3.312
			s3.313,1.481,3.313,3.312v23.99C208.832,156.551,207.348,158.035,205.52,158.035z"/>
	</g>
</g>
<g>
	<g>
		<path style="fill:#0A0188;" d="M30.872,320.82c-2.566,0-4.908-0.494-7.024-1.484c-2.122-0.991-3.795-2.392-5.027-4.206
			l3.794-3.281c0.752,1.403,1.836,2.519,3.257,3.359c1.417,0.839,3.12,1.256,5.102,1.256c1.572,0,2.821-0.275,3.745-0.823
			c0.922-0.544,1.383-1.312,1.383-2.308c0-0.645-0.215-1.219-0.641-1.715c-0.428-0.496-1.241-0.881-2.436-1.156l-5.384-1.128
			c-2.736-0.546-4.686-1.434-5.847-2.664c-1.164-1.229-1.742-2.772-1.742-4.617c0-1.4,0.418-2.697,1.254-3.896
			c0.838-1.199,2.043-2.165,3.617-2.897c1.571-0.737,3.469-1.103,5.691-1.103c2.529,0,4.707,0.452,6.538,1.362
			c1.83,0.905,3.226,2.194,4.18,3.868l-3.796,3.182c-0.684-1.368-1.649-2.387-2.898-3.055c-1.248-0.666-2.553-1.001-3.918-1.001
			c-1.679,0-2.97,0.3-3.875,0.9c-0.906,0.597-1.36,1.377-1.36,2.333c0,0.651,0.258,1.24,0.769,1.769
			c0.516,0.529,1.438,0.931,2.773,1.208l5.845,1.23c2.461,0.48,4.194,1.291,5.206,2.437c1.006,1.144,1.512,2.539,1.512,4.178
			c0,2.46-0.958,4.453-2.873,5.972C36.804,320.063,34.189,320.82,30.872,320.82z"/>
		<path style="fill:#0A0188;" d="M72.05,294.667l-11.229,28.669c-1.13,2.974-2.411,5.052-3.845,6.232
			c-1.438,1.176-3.285,1.766-5.542,1.766c-1.264,0-2.407-0.155-3.435-0.459c-1.026-0.308-1.93-0.752-2.718-1.335l1.335-4.254
			c1.23,1.091,2.718,1.639,4.46,1.639c0.923,0,1.752-0.239,2.486-0.717c0.737-0.478,1.395-1.469,1.976-2.976l1.13-2.768l-2.72-6.361
			l-8.002-19.437h6.158l5.691,16.107l1.488,4.816l1.693-5.281l5.382-15.642H72.05z"/>
		<path style="fill:#0A0188;" d="M79.284,320.309v-25.643h4.87l0.254,4.415c0.857-1.713,2.043-2.963,3.567-3.746
			c1.521-0.786,3.224-1.179,5.102-1.179c1.813,0,3.445,0.351,4.897,1.052c1.453,0.701,2.607,1.761,3.462,3.176
			c0.855,1.418,1.28,3.192,1.28,5.309v16.616H97.23v-14.926c0-2.529-0.519-4.28-1.563-5.253c-1.041-0.976-2.351-1.464-3.92-1.464
			c-1.131,0-2.226,0.257-3.285,0.77c-1.058,0.514-1.939,1.357-2.639,2.539c-0.701,1.182-1.052,2.745-1.052,4.693v13.64H79.284z"/>
		<path style="fill:#0A0188;" d="M128.414,303.846c0-1.711-0.47-3.032-1.41-3.973c-0.941-0.94-2.232-1.41-3.875-1.41
			c-1.539,0-2.862,0.358-3.974,1.077c-1.109,0.719-1.907,1.881-2.382,3.487l-4.619-1.95c0.652-2.084,1.925-3.761,3.825-5.027
			c1.896-1.26,4.351-1.896,7.357-1.896c2.018,0,3.822,0.335,5.409,0.999c1.592,0.668,2.838,1.677,3.747,3.027
			c0.904,1.352,1.357,3.049,1.357,5.1v11.438c0,1.263,0.63,1.896,1.896,1.896c0.617,0,1.212-0.086,1.797-0.257l-0.309,3.797
			c-0.785,0.374-1.775,0.562-2.976,0.562c-1.366,0-2.546-0.305-3.536-0.919c-0.991-0.615-1.661-1.541-2-2.773
			c-0.819,1.266-2,2.213-3.539,2.846c-1.539,0.633-3.076,0.948-4.614,0.948c-2.43,0-4.447-0.58-6.054-1.741
			c-1.606-1.161-2.411-2.905-2.411-5.23c0-1.881,0.623-3.438,1.872-4.668c1.248-1.23,3.018-2.083,5.307-2.564l9.13-1.792V303.846z
			 M117.642,313.439c0,0.956,0.367,1.713,1.104,2.279c0.734,0.567,1.718,0.846,2.949,0.846c1.163,0,2.258-0.188,3.28-0.563
			c1.027-0.376,1.857-0.992,2.49-1.845s0.949-1.967,0.949-3.334v-2.152l-6.461,1.329c-1.471,0.277-2.557,0.671-3.258,1.182
			C117.992,311.696,117.642,312.449,117.642,313.439z"/>
		<path style="fill:#0A0188;" d="M145.386,331.082v-36.416h4.873l0.254,4.823c0.755-1.611,1.898-2.899,3.437-3.875
			c1.539-0.971,3.317-1.459,5.334-1.459c2.086,0,3.975,0.528,5.667,1.588c1.691,1.06,3.045,2.585,4.055,4.567
			c1.005,1.982,1.51,4.358,1.51,7.126c0,2.803-0.515,5.204-1.54,7.205c-1.023,2-2.399,3.532-4.128,4.589
			c-1.724,1.06-3.631,1.589-5.718,1.589c-1.911,0-3.573-0.432-4.975-1.304c-1.402-0.874-2.494-2.01-3.28-3.413v14.979H145.386z
			 M157.951,316.359c2.188,0,3.913-0.785,5.179-2.358c1.268-1.573,1.898-3.743,1.898-6.514c0-2.767-0.613-4.945-1.848-6.536
			c-1.23-1.591-2.941-2.384-5.127-2.384c-2.153,0-3.887,0.801-5.205,2.407c-1.316,1.611-1.974,3.779-1.974,6.513
			c0,2.702,0.639,4.854,1.92,6.46C154.081,315.559,155.795,316.359,157.951,316.359z"/>
		<path style="fill:#0A0188;" d="M189.848,320.82c-2.564,0-4.908-0.494-7.025-1.484c-2.121-0.991-3.795-2.392-5.025-4.206
			l3.795-3.281c0.752,1.403,1.834,2.519,3.256,3.359c1.416,0.839,3.119,1.256,5.102,1.256c1.572,0,2.82-0.275,3.744-0.823
			c0.922-0.544,1.383-1.312,1.383-2.308c0-0.645-0.213-1.219-0.639-1.715c-0.43-0.496-1.24-0.881-2.438-1.156l-5.383-1.128
			c-2.736-0.546-4.686-1.434-5.848-2.664c-1.164-1.229-1.742-2.772-1.742-4.617c0-1.4,0.418-2.697,1.256-3.896
			c0.836-1.199,2.041-2.165,3.615-2.897c1.57-0.737,3.471-1.103,5.693-1.103c2.527,0,4.707,0.452,6.537,1.362
			c1.828,0.905,3.225,2.194,4.178,3.868l-3.795,3.182c-0.682-1.368-1.648-2.387-2.896-3.055c-1.25-0.666-2.555-1.001-3.92-1.001
			c-1.68,0-2.969,0.3-3.875,0.9c-0.906,0.597-1.359,1.377-1.359,2.333c0,0.651,0.258,1.24,0.77,1.769
			c0.516,0.529,1.438,0.931,2.771,1.208l5.846,1.23c2.461,0.48,4.197,1.291,5.203,2.437c1.008,1.144,1.514,2.539,1.514,4.178
			c0,2.46-0.957,4.453-2.871,5.972C195.779,320.063,193.166,320.82,189.848,320.82z"/>
		<path style="fill:#0A0188;" d="M221.027,320.82c-2.564,0-4.816-0.529-6.744-1.589c-1.932-1.057-3.443-2.589-4.537-4.589
			c-1.098-2-1.645-4.384-1.645-7.154c0-2.767,0.541-5.154,1.619-7.153c1.074-2,2.563-3.53,4.459-4.59
			c1.896-1.06,4.08-1.588,6.539-1.588c2.492,0,4.615,0.511,6.357,1.538c1.744,1.024,3.082,2.427,4.004,4.203
			c0.922,1.779,1.383,3.797,1.383,6.054c0,0.65-0.018,1.248-0.055,1.797c-0.029,0.549-0.084,1.009-0.152,1.382h-18.77
			c0.24,2.395,1.02,4.216,2.336,5.464c1.316,1.248,3.016,1.871,5.102,1.871c1.709,0,3.094-0.325,4.154-0.976
			c1.057-0.648,1.898-1.552,2.512-2.714l4.357,2.048c-0.885,1.88-2.299,3.352-4.227,4.409
			C225.789,320.291,223.555,320.82,221.027,320.82z M220.615,298.512c-1.881,0-3.428,0.549-4.641,1.642
			c-1.213,1.098-1.992,2.684-2.334,4.77h13.488c-0.139-2.051-0.785-3.631-1.947-4.742C224.018,299.07,222.5,298.512,220.615,298.512
			z"/>
	</g>
</g>
</svg>
